<svg viewBox="0 0 1200 420" xmlns="http://www.w3.org/2000/svg">
  <defs>
    <!-- Rough paper texture -->
    <filter id="paper" x="0" y="0" width="100%" height="100%">
      <feTurbulence type="fractalNoise" baseFrequency="0.04" numOctaves="5" seed="3"/>
      <feColorMatrix values="0 0 0 0 0.92  0 0 0 0 0.88  0 0 0 0 0.80  0 0 0 0.15 0"/>
      <feComposite operator="over" in2="SourceGraphic"/>
    </filter>

    <!-- Ink bleed for stamp -->
    <filter id="bleed" x="-20%" y="-20%" width="140%" height="140%">
      <feGaussianBlur stdDeviation="0.8"/>
      <feTurbulence type="fractalNoise" baseFrequency="0.9" numOctaves="2" seed="7"/>
      <feDisplacementMap in="SourceGraphic" scale="2"/>
    </filter>

    <!-- Rough edge for torn paper effect -->
    <filter id="rough">
      <feTurbulence type="fractalNoise" baseFrequency="0.05" numOctaves="3" seed="12"/>
      <feDisplacementMap in="SourceGraphic" scale="4"/>
    </filter>

    <!-- Photocopy grain -->
    <filter id="grain" x="0" y="0" width="100%" height="100%">
      <feTurbulence type="fractalNoise" baseFrequency="0.8" numOctaves="4" seed="5"/>
      <feColorMatrix values="0 0 0 0 0  0 0 0 0 0  0 0 0 0 0  0 0 0 0.08 0"/>
    </filter>

    <!-- Ink texture overlay -->
    <filter id="ink" x="-10%" y="-10%" width="120%" height="120%">
      <feTurbulence type="fractalNoise" baseFrequency="0.03" numOctaves="4" seed="8"/>
      <feDisplacementMap in="SourceGraphic" scale="1.5"/>
    </filter>
  </defs>

  <!-- ============ BASE: recycled paper ============ -->
  <rect width="1200" height="420" fill="#E8E0D0"/>
  <rect width="1200" height="420" fill="#E8E0D0" filter="url(#paper)"/>
  <rect width="1200" height="420" filter="url(#grain)"/>

  <!-- ============ TORN PAPER STRIP (top) — like a ripped flyer ============ -->
  <path d="M 0 0 L 1200 0 L 1200 28 L 1180 25 L 1150 30 L 1100 24 L 1050 32 L 1000 22 L 950 35 L 900 20 L 850 38 L 800 18 L 750 40 L 700 15 L 650 42 L 600 12 L 550 38 L 500 20 L 450 45 L 400 10 L 350 50 L 300 8 L 250 55 L 200 5 L 150 60 L 100 0 L 50 65 L 0 0 Z" 
    fill="#D4A574" opacity="0.15" filter="url(#rough)"/>

  <!-- ============ HANDWRITTEN ANNOTATION (top left, marker style) ============ -->
  <text x="48" y="60" font-family="'Comic Sans MS', 'Marker Felt', cursive" font-size="13" fill="#5C4A30" opacity="0.6" transform="rotate(-2 48 60)">
    no more violet-on-black garbage →
  </text>
  <!-- Arrow pointing right -->
  <path d="M 280 55 Q 310 52 340 58" stroke="#5C4A30" stroke-width="1.5" fill="none" opacity="0.5"/>
  <path d="M 335 54 L 342 58 L 335 62" stroke="#5C4A30" stroke-width="1.5" fill="none" opacity="0.5"/>

  <!-- ============ MAIN HEADLINE — ransom note / cutout style ============ -->
  <!-- Each word is a slightly different size, rotation, weight — like cut from different sources -->

  <!-- "DESIGN" — large, bold, slight rotation -->
  <text x="60" y="160" font-family="'Impact', 'Haettenschweiler', sans-serif" font-size="88" font-weight="900" fill="#1A1612" letter-spacing="-2" transform="rotate(-1.5 60 160)" filter="url(#ink)">
    DESIGN
  </text>

  <!-- "THAT" — smaller, serif, different voice -->
  <text x="400" y="150" font-family="Georgia, serif" font-size="48" font-style="italic" fill="#3A2E20" transform="rotate(1 400 150)">
    that
  </text>

  <!-- "REFUSES" — biggest, amber, condensed — the power word -->
  <text x="160" y="240" font-family="'Impact', sans-serif" font-size="104" font-weight="900" fill="#B87838" letter-spacing="-3" transform="rotate(-0.5 160 240)" filter="url(#ink)">
    REFUSES
  </text>

  <!-- "DEFAULTS." — serif italic, understated, contrast -->
  <text x="580" y="235" font-family="Georgia, serif" font-size="72" font-style="italic" font-weight="700" fill="#1A1612" transform="rotate(0.5 580 235)">
    defaults.
  </text>

  <!-- ============ INK STAMP (rotated, bleeding) — like a rubber stamp on paper ============ -->
  <g transform="translate(860, 100) rotate(-12)" filter="url(#bleed)">
    <rect x="0" y="0" width="260" height="52" fill="none" stroke="#8B2500" stroke-width="3"/>
    <text x="130" y="36" text-anchor="middle" font-family="'Courier New', monospace" font-size="16" font-weight="700" fill="#8B2500" letter-spacing="3">
      ✗ NO AI DEFAULTS
    </text>
  </g>

  <!-- ============ PHYSICAL TAPE (top right corner) ============ -->
  <g transform="translate(1040, -10) rotate(15)">
    <rect x="0" y="0" width="120" height="35" fill="#D4A574" opacity="0.25"/>
    <line x1="0" y1="17" x2="120" y2="17" stroke="#A07040" stroke-width="0.5" opacity="0.3"/>
    <line x1="20" y1="5" x2="20" y2="30" stroke="#A07040" stroke-width="0.3" opacity="0.2" stroke-dasharray="2 3"/>
    <line x1="60" y1="5" x2="60" y2="30" stroke="#A07040" stroke-width="0.3" opacity="0.2" stroke-dasharray="2 3"/>
    <line x1="100" y1="5" x2="100" y2="30" stroke="#A07040" stroke-width="0.3" opacity="0.2" stroke-dasharray="2 3"/>
  </g>

  <!-- ============ CIRCLED NUMBER (hand-drawn quality) ============ -->
  <!-- Rough circle around 380 -->
  <ellipse cx="980" cy="280" rx="70" ry="55" fill="none" stroke="#1A1612" stroke-width="2.5" filter="url(#rough)" opacity="0.7"/>
  <text x="980" y="290" text-anchor="middle" font-family="Georgia, serif" font-size="56" font-weight="700" fill="#B87838">380</text>
  <text x="980" y="310" text-anchor="middle" font-family="'Courier New', monospace" font-size="8" fill="#5C4A30" letter-spacing="2">SKILLS</text>

  <!-- Hand-drawn arrow from circle to headline -->
  <path d="M 910 260 Q 800 230 700 245" stroke="#5C4A30" stroke-width="1.5" fill="none" opacity="0.4" stroke-dasharray="4 3"/>
  <path d="M 705 240 L 700 245 L 708 250" stroke="#5C4A30" stroke-width="1.5" fill="none" opacity="0.4"/>

  <!-- ============ BOTTOM: handwritten footer on torn strip ============ -->
  <path d="M 0 360 L 1200 360 L 1200 420 L 0 420 Z" fill="#D4CFB8" opacity="0.5" filter="url(#rough)"/>
  <path d="M 0 360 L 1200 360" stroke="#A09585" stroke-width="0.5" opacity="0.3"/>

  <text x="60" y="390" font-family="'Courier New', monospace" font-size="11" fill="#5C4A30">
    $ pi install npm:pi-designer
  </text>

  <text x="400" y="390" font-family="'Comic Sans MS', cursive" font-size="10" fill="#5C4A30" opacity="0.7" transform="rotate(-0.5 400 390)">
    hand-crafted rules · 16 slices · 13 pi apis · ~575 tokens
  </text>

  <text x="1140" y="390" text-anchor="end" font-family="'Courier New', monospace" font-size="10" fill="#5C4A30" opacity="0.6">
    github.com/drvova/pi-designer
  </text>
</svg>
